<svg width="29" height="20" viewBox="0 0 29 20" fill="none" xmlns="http://www.w3.org/2000/svg">
<path d="M27.8181 4.68244L15.197 0.164404C14.5841 -0.0548012 13.9157 -0.0548012 13.3028 0.164404L0.716546 4.68244C0.287422 4.83869 0 5.24942 0 5.71373C0 6.17803 0.287422 6.59099 0.716546 6.74457L3.39611 7.70488C2.86529 8.41026 2.49162 9.22994 2.30009 10.1135C1.78802 10.33 1.42863 10.8389 1.42863 11.4282C1.42863 11.8726 1.64355 12.2537 1.96168 12.5158L0.853158 19.1678C0.780388 19.6027 1.11611 20 1.55765 20H4.15686C4.59826 20 4.93412 19.6036 4.86135 19.1683L3.75283 12.5162C4.07114 12.2542 4.28588 11.8345 4.28588 11.4282C4.28588 10.9688 4.05489 10.5786 3.718 10.317C3.90783 9.52414 4.29302 8.80715 4.83144 8.2174L13.3407 11.2635C13.9537 11.4827 14.622 11.4827 15.235 11.2635L27.856 6.74546C28.2868 6.58876 28.5725 6.17803 28.5725 5.71373C28.5725 5.24942 28.2868 4.83869 27.8181 4.68244ZM15.6747 12.6069C15.2551 12.772 14.7729 12.8569 14.2863 12.8569C13.7988 12.8569 13.3179 12.7735 12.8576 12.6089L6.37525 10.2898L5.71451 16.665C5.71451 18.5089 9.51376 20 14.2863 20C18.9784 20 22.858 18.5089 22.858 16.6664L22.1982 10.2867L15.6747 12.6069Z" fill="#EC7E5C"/>
</svg>
