<svg width="20" height="20" viewBox="0 0 20 20" fill="none" xmlns="http://www.w3.org/2000/svg">
<path d="M20 10C20 15.5234 15.5234 20 10 20C4.47656 20 0 15.5234 0 10C0 4.47656 4.47656 0 10 0C15.5234 0 20 4.47656 20 10ZM6.875 6.5625V13.4375C6.875 13.7773 7.05859 14.0898 7.35547 14.2539C7.64844 14.4219 8.01172 14.4141 8.30078 14.2383L13.9258 10.8008C14.2031 10.6289 14.375 10.3281 14.375 10C14.375 9.67188 14.2031 9.37109 13.9258 9.19922L8.30078 5.76172C8.01172 5.55078 7.64844 5.57812 7.35547 5.74609C7.05859 5.91016 6.875 6.22266 6.875 6.5625Z" fill="white"/>
</svg>
