<svg width="23" height="20" viewBox="0 0 23 20" fill="none" xmlns="http://www.w3.org/2000/svg">
<path d="M22.8571 11.4241L22.857 16.4241C22.817 18.3973 21.2545 20 19.2857 20C18.104 20 17.1429 19.0375 17.1429 17.8545V12.1473C17.1429 10.9643 18.1027 10 19.2857 10C19.7692 10 20.2192 10.1216 20.6384 10.2981C20.0759 5.67411 16.1652 2.14866 11.4286 2.14866C6.69196 2.14866 2.7808 5.67411 2.21875 10.2991C2.63795 10.1205 3.08795 10 3.57143 10C4.75446 10 5.71429 10.9643 5.71429 12.1473V17.8571C5.71429 19.0357 4.75446 20 3.57143 20C1.60223 20 0.0401786 18.3982 0.0401786 16.4259L0 11.4286C0 5.125 5.125 0 11.4286 0C17.7188 0 22.8393 5.11161 22.817 11.3973C22.817 11.4062 22.817 11.4152 22.8571 11.4241Z" fill="#EC7E5C"/>
</svg>
