<svg width="25" height="20" viewBox="0 0 25 20" fill="none" xmlns="http://www.w3.org/2000/svg">
<path d="M20 17.5H4.96484C4.30859 17.5 3.75 18.0586 3.75 18.7148C3.75 19.3711 4.30859 20 4.96484 20H19.9648C20.6914 20 21.25 19.4414 21.25 18.75C21.25 18.0586 20.6914 17.5 20 17.5ZM23.125 0H1.875C0.839844 0 0 0.839844 0 1.875V14.375C0 15.4102 0.839844 16.25 1.875 16.25H23.125C24.1602 16.25 25 15.4102 25 14.375V1.875C25 0.839844 24.1602 0 23.125 0ZM22.5 13.75H2.5V2.5H22.5V13.75Z" fill="#EC7E5C"/>
</svg>
