<svg width="24" height="20" viewBox="0 0 24 20" fill="none" xmlns="http://www.w3.org/2000/svg">
<path d="M0 6.79449V6.52956C0 3.33667 2.30765 0.613349 5.45395 0.0889657C7.49576 -0.25773 9.65633 0.421044 11.1454 1.91243L11.6936 2.45965L12.2006 1.91243C13.7308 0.421044 15.8503 -0.25773 17.9332 0.0889657C21.0804 0.613349 23.3871 3.33667 23.3871 6.52956V6.79449C23.3871 8.69013 22.6015 10.5035 21.2129 11.7962L12.9588 19.5021C12.6163 19.8219 12.164 20 11.6936 20C11.2231 20 10.7709 19.8219 10.4283 19.5021L2.17382 11.7962C0.787032 10.5035 1.37034e-05 8.69013 1.37034e-05 6.79449H0Z" fill="#EC7E5C"/>
</svg>
