<svg width="21" height="20" viewBox="0 0 21 20" fill="none" xmlns="http://www.w3.org/2000/svg">
<path d="M18.2812 9.41824L13.7498 11.2503H17.4351C17.1339 11.8304 16.7987 12.3941 16.4245 12.9305L11.2485 15.0005H14.5944C12.2763 17.0595 8.96524 18.1389 4.26193 17.0638L1.6005 19.7253C1.23408 20.0917 0.641089 20.0915 0.274669 19.7253C-0.0915562 19.359 -0.0915562 18.7659 0.274669 18.3994L10.1735 8.50062C10.3628 8.2555 10.3549 7.90724 10.13 7.68223C9.88586 7.43808 9.49014 7.43808 9.24638 7.68223L2.66019 14.2684C0.993837 2.26562 14.367 0.31703 18.7422 0.0032136C19.4793 -0.049679 20.0864 0.557532 20.0332 1.29428C19.9063 3.0676 19.5078 6.32046 18.2812 9.41824Z" fill="#EC7E5C"/>
</svg>
