<svg width="25" height="24" viewBox="0 0 25 24" fill="none" xmlns="http://www.w3.org/2000/svg">
<path d="M12.8584 5.8467C9.45238 5.8467 6.70509 8.594 6.70509 12C6.70509 15.406 9.45238 18.1533 12.8584 18.1533C16.2644 18.1533 19.0117 15.406 19.0117 12C19.0117 8.594 16.2644 5.8467 12.8584 5.8467ZM12.8584 16.0004C10.6573 16.0004 8.85794 14.2064 8.85794 12C8.85794 9.7936 10.652 7.99955 12.8584 7.99955C15.0648 7.99955 16.8588 9.7936 16.8588 12C16.8588 14.2064 15.0594 16.0004 12.8584 16.0004ZM20.6986 5.595C20.6986 6.39295 20.056 7.03024 19.2634 7.03024C18.4654 7.03024 17.8281 6.38759 17.8281 5.595C17.8281 4.80241 18.4708 4.15977 19.2634 4.15977C20.056 4.15977 20.6986 4.80241 20.6986 5.595ZM24.774 7.05166C24.683 5.12909 24.2439 3.42608 22.8354 2.02298C21.4323 0.619882 19.7293 0.180743 17.8067 0.0843468C15.8252 -0.0281156 9.88616 -0.0281156 7.90468 0.0843468C5.98747 0.175388 4.28447 0.614526 2.87601 2.01763C1.46755 3.42073 1.03377 5.12373 0.937374 7.0463C0.824912 9.02778 0.824912 14.9669 0.937374 16.9483C1.02842 18.8709 1.46755 20.5739 2.87601 21.977C4.28447 23.3801 5.98211 23.8193 7.90468 23.9157C9.88616 24.0281 15.8252 24.0281 17.8067 23.9157C19.7293 23.8246 21.4323 23.3855 22.8354 21.977C24.2385 20.5739 24.6776 18.8709 24.774 16.9483C24.8865 14.9669 24.8865 9.03314 24.774 7.05166ZM22.2142 19.0744C21.7965 20.1241 20.9878 20.9327 19.9328 21.3558C18.353 21.9824 14.6042 21.8378 12.8584 21.8378C11.1125 21.8378 7.35844 21.977 5.78397 21.3558C4.73432 20.9381 3.92566 20.1294 3.50259 19.0744C2.87601 17.4946 3.02061 13.7458 3.02061 12C3.02061 10.2542 2.88137 6.50006 3.50259 4.92558C3.9203 3.87593 4.72896 3.06728 5.78397 2.6442C7.36379 2.01763 11.1125 2.16222 12.8584 2.16222C14.6042 2.16222 18.3583 2.02298 19.9328 2.6442C20.9825 3.06192 21.7911 3.87058 22.2142 4.92558C22.8408 6.50541 22.6962 10.2542 22.6962 12C22.6962 13.7458 22.8408 17.4999 22.2142 19.0744Z" fill="white"/>
</svg>
