<svg width="1440" height="320" viewBox="0 0 1440 320" fill="none" xmlns="http://www.w3.org/2000/svg">
<g clip-path="url(#clip0_189_115)">
<path d="M0 160L48 138.7C96 117 192 75.0002 288 58.7002C384 43.0002 480 53.0002 576 74.7002C672 96.0002 768 128 864 154.7C960 181 1056 203 1152 208C1248 213 1344 203 1392 197.3L1440 192V320H1392C1344 320 1248 320 1152 320C1056 320 960 320 864 320C768 320 672 320 576 320C480 320 384 320 288 320C192 320 96 320 48 320H0V160Z" fill="#28344A"/>
</g>
<defs>
<clipPath id="clip0_189_115">
<rect width="1440" height="320" fill="white"/>
</clipPath>
</defs>
</svg>
