<svg width="1440" height="184" viewBox="0 0 1440 184" fill="none" xmlns="http://www.w3.org/2000/svg">
<path d="M0 151.417L48 146.117C96 140.417 192 130.417 288 98.117C384 66.417 480 12.417 576 2.11702C672 -8.58298 768 23.417 864 50.117C960 76.417 1056 98.417 1152 92.717C1248 87.417 1344 55.417 1392 39.417L1440 23.417V183.417H1392C1344 183.417 1248 183.417 1152 183.417C1056 183.417 960 183.417 864 183.417C768 183.417 672 183.417 576 183.417C480 183.417 384 183.417 288 183.417C192 183.417 96 183.417 48 183.417H0V151.417Z" fill="white"/>
</svg>
