<svg width="32" height="32" viewBox="0 0 32 32" fill="none" xmlns="http://www.w3.org/2000/svg"><path d="M15.993 7.284l.588-1.013a1.318 1.318 0 112.284 1.316l-5.646 9.774h4.084c1.323 0 2.065 1.555 1.49 2.633H6.827a1.313 1.313 0 01-1.316-1.317c0-.729.587-1.316 1.316-1.316h3.355l4.296-7.445-1.341-2.329a1.32 1.32 0 012.283-1.316l.574 1.013zm-5.077 14.064l-1.264 2.194a1.318 1.318 0 11-2.284-1.316L8.31 20.6c1.058-.329 1.922-.077 2.606.748zm10.897-3.98h3.426c.729 0 1.316.587 1.316 1.316 0 .729-.587 1.316-1.316 1.316h-1.904l1.284 2.226a1.32 1.32 0 01-2.284 1.316c-2.16-3.748-3.787-6.555-4.864-8.426-1.103-1.903-.316-3.813.465-4.458.864 1.484 2.154 3.723 3.877 6.71zM16 0C7.161 0 0 7.161 0 16s7.161 16 16 16 16-7.161 16-16S24.839 0 16 0zm13.936 16c0 7.658-6.2 13.936-13.936 13.936-7.658 0-13.935-6.2-13.935-13.936 0-7.658 6.2-13.935 13.935-13.935 7.658 0 13.936 6.2 13.936 13.935z" fill="#28344A"/></svg>