<svg width="23" height="20" viewBox="0 0 23 20" fill="none" xmlns="http://www.w3.org/2000/svg"><path d="M22.857 11.424v5C22.817 18.397 21.255 20 19.286 20a2.147 2.147 0 01-2.143-2.145v-5.708c0-1.183.96-2.147 2.143-2.147.483 0 .933.122 1.352.298a9.26 9.26 0 00-9.21-8.15 9.26 9.26 0 00-9.21 8.151A3.45 3.45 0 013.571 10c1.183 0 2.143.964 2.143 2.147v5.71c0 1.179-.96 2.143-2.143 2.143-1.969 0-3.53-1.602-3.53-3.574L0 11.429C0 5.125 5.125 0 11.429 0c6.29 0 11.41 5.112 11.388 11.397 0 .01 0 .018.04.027z" fill="#EC7E5C"/></svg>