<svg width="25" height="20" viewBox="0 0 25 20" fill="none" xmlns="http://www.w3.org/2000/svg"><path d="M15.863 2.408c.364.056.52.506.254.772l-1.484 1.433.351 2.032c.02.367-.324.648-.66.48l-1.816-.957-1.832.969a.459.459 0 01-.66-.477l.351-2.035L8.883 3.18a.456.456 0 01.254-.772l2.043-.294.922-1.867a.445.445 0 01.796 0l.922 1.867 2.043.294zM15 10c.691 0 1.25.559 1.25 1.25v7.5A1.25 1.25 0 0115 20h-5a1.25 1.25 0 01-1.25-1.25v-7.5c0-.691.559-1.25 1.25-1.25h5zm-8.75 2.5c.691 0 1.25.559 1.25 1.25v5A1.25 1.25 0 016.25 20h-5A1.25 1.25 0 010 18.75v-5c0-.691.56-1.25 1.25-1.25h5zm11.25 3.75c0-.691.559-1.25 1.25-1.25h5c.691 0 1.25.559 1.25 1.25v2.5A1.25 1.25 0 0123.75 20h-5a1.25 1.25 0 01-1.25-1.25v-2.5z" fill="#EC7E5C"/></svg>