<svg width="32" height="32" viewBox="0 0 32 32" fill="none" xmlns="http://www.w3.org/2000/svg"><path d="M15.971 3.45C9.214 3.45 3.75 8.929 3.75 15.679c0 6.75 5.464 12.235 12.221 12.235 6.758 0 12.229-5.478 12.229-12.228 0-6.757-5.479-12.236-12.229-12.236zm5.672 17.143c-.229.971-.964 1.514-1.95 1.7-.864.157-1.586.2-2.279-.357-.843-.715-.857-1.886-.1-2.629.6-.571 1.45-.686 2.715-.914.214-.036.4-.086.55-.264.228-.258.157-.143.157-5.772 0-.4-.193-.507-.6-.436-.286.05-6.565 1.222-6.565 1.222-.357.078-.478.186-.478.593 0 8.293.036 7.914-.086 8.464a2.076 2.076 0 01-1.064 1.4c-.593.329-1.672.471-2.243.371-1.529-.285-2.064-2.05-1.029-3.064.6-.571 1.45-.686 2.715-.914.214-.036.4-.086.55-.264.357-.408.064-9.072.185-9.55a.698.698 0 01.25-.458c.15-.121.415-.192.479-.192C20.064 8.17 20.943 8 21.071 8c.408-.029.643.214.643.621-.007 12.186.029 11.529-.071 11.972zM24.657 0H7.343A7.331 7.331 0 000 7.343v17.314A7.331 7.331 0 007.343 32h17.314A7.327 7.327 0 0032 24.657V7.343A7.331 7.331 0 0024.657 0zm-8.686 29.429c-7.592 0-13.75-6.158-13.75-13.75 0-7.593 6.158-13.75 13.75-13.75 7.593 0 13.75 6.157 13.75 13.75 0 7.592-6.157 13.75-13.75 13.75z" fill="#28344A"/></svg>