<svg width="29" height="20" viewBox="0 0 29 20" fill="none" xmlns="http://www.w3.org/2000/svg"><path d="M27.818 4.682L15.197.164a2.81 2.81 0 00-1.894 0L.717 4.682C.287 4.84 0 5.25 0 5.714c0 .464.287.877.717 1.03l2.68.96a6.172 6.172 0 00-1.097 2.41 1.429 1.429 0 00-.871 1.314c0 .445.215.826.533 1.088L.853 19.168a.715.715 0 00.705.832h2.599a.714.714 0 00.704-.832l-1.108-6.652c.318-.262.533-.681.533-1.088 0-.46-.231-.85-.568-1.111.19-.793.575-1.51 1.113-2.1l8.51 3.046a2.81 2.81 0 001.894 0l12.621-4.518c.43-.156.716-.567.716-1.031 0-.465-.285-.875-.754-1.032zm-12.143 7.925c-.42.165-.902.25-1.389.25s-.968-.083-1.428-.248l-6.483-2.32-.66 6.376c0 1.844 3.799 3.335 8.571 3.335 4.692 0 8.572-1.491 8.572-3.334l-.66-6.38-6.523 2.32z" fill="#EC7E5C"/></svg>