<svg width="1254" height="630" viewBox="0 0 1254 630" fill="none" xmlns="http://www.w3.org/2000/svg">
<g clip-path="url(#clip0_231_39)">
<path d="M414.66 586.41C409.43 588.305 403.902 589.247 398.34 589.19C388.38 589.19 379.677 587.01 372.23 582.65C364.983 578.498 359.034 572.411 355.05 565.07C351.023 557.624 348.958 549.275 349.05 540.81C348.893 531.856 350.954 523.003 355.05 515.04C358.871 507.661 364.685 501.502 371.83 497.26C379.263 492.922 387.744 490.705 396.35 490.85C401.65 490.804 406.927 491.562 412 493.1C416.471 494.451 420.755 496.359 424.75 498.78L418.67 513.19C411.53 508.17 404.26 505.657 396.86 505.65C391.27 505.636 385.792 507.218 381.07 510.21C376.161 513.273 372.13 517.555 369.37 522.64C366.448 527.916 364.943 533.859 365 539.89C364.887 546.052 366.259 552.15 369 557.67C371.582 562.81 375.597 567.093 380.56 570C385.798 573.022 391.763 574.554 397.81 574.43C402.11 574.491 406.386 573.773 410.43 572.31C413.875 571.074 417.074 569.239 419.88 566.89L426.36 580.64C422.727 583.063 418.794 585.002 414.66 586.41Z" fill="white"/>
<path d="M487.16 515.63C491.492 508.196 497.658 501.999 505.07 497.63C512.512 493.218 521.004 490.89 529.655 490.89C538.306 490.89 546.798 493.218 554.24 497.63C561.675 502.048 567.868 508.278 572.24 515.74C576.632 523.155 578.956 531.612 578.968 540.23C578.98 548.849 576.681 557.312 572.31 564.74C567.953 572.142 561.751 578.289 554.31 582.58C546.826 586.899 538.34 589.178 529.7 589.19C521.059 589.203 512.566 586.947 505.07 582.65C497.644 578.397 491.468 572.265 487.16 564.87C482.83 557.388 480.549 548.895 480.549 540.25C480.549 531.605 482.83 523.112 487.16 515.63V515.63ZM500.91 557.34C503.836 562.471 508.047 566.752 513.13 569.76C518.261 572.842 524.145 574.445 530.13 574.39C535.996 574.449 541.762 572.869 546.78 569.83C551.802 566.812 555.941 562.525 558.78 557.4C561.696 552.105 563.22 546.157 563.209 540.112C563.199 534.068 561.654 528.125 558.72 522.84C555.831 517.665 551.639 513.335 546.56 510.28C541.473 507.25 535.661 505.65 529.74 505.65C523.819 505.65 518.007 507.25 512.92 510.28C507.888 513.342 503.75 517.674 500.92 522.84C497.968 528.128 496.441 534.094 496.49 540.15C496.405 546.172 497.931 552.106 500.91 557.34V557.34Z" fill="white"/>
<path d="M656 563.81C657.942 566.987 660.674 569.605 663.93 571.41C667.282 573.31 671.077 574.289 674.93 574.25C678.871 574.301 682.76 573.348 686.23 571.48C689.522 569.726 692.285 567.122 694.23 563.94C696.161 560.802 697.17 557.184 697.14 553.5V491.91H712.34V553.91C712.47 560.266 710.801 566.53 707.527 571.979C704.252 577.428 699.504 581.842 693.83 584.71C687.992 587.728 681.502 589.27 674.93 589.2C668.345 589.289 661.841 587.743 656 584.7C650.468 581.844 645.826 577.524 642.58 572.21C639.268 566.685 637.574 560.341 637.69 553.9V491.9H653V553.5C653.01 557.15 654.05 560.724 656 563.81Z" fill="white"/>
<path d="M792.23 491.91V573.33H839.68V588.13H776.76V491.91H792.23Z" fill="white"/>
<path d="M928.1 505C923.353 505 919.587 506.06 916.8 508.18C915.45 509.186 914.366 510.506 913.641 512.025C912.916 513.545 912.573 515.218 912.64 516.9C912.64 520.513 914.38 523.53 917.86 525.95C922.427 528.924 927.331 531.344 932.47 533.16C936.749 534.604 940.849 536.534 944.69 538.91C948.144 541.136 951.023 544.148 953.09 547.7C955.29 551.4 956.39 556.067 956.39 561.7C956.445 566.595 955.118 571.406 952.56 575.58C949.853 579.851 946.009 583.283 941.46 585.49C936.105 588.071 930.213 589.339 924.27 589.19C918.437 589.188 912.64 588.274 907.09 586.48C901.696 584.799 896.603 582.275 892 579L898.87 567C902.4 569.613 906.299 571.686 910.44 573.15C914.385 574.684 918.568 575.513 922.8 575.6C927.136 575.69 931.406 574.519 935.09 572.23C938.61 569.983 940.373 566.523 940.38 561.85C940.402 560.071 940.013 558.312 939.245 556.708C938.477 555.104 937.349 553.698 935.95 552.6C932.224 549.697 928.049 547.42 923.59 545.86C918.917 544.186 914.368 542.181 909.98 539.86C906.29 537.814 903.106 534.968 900.66 531.53C898.06 527.97 896.76 523.53 896.76 518.12C896.76 510.28 899.427 503.947 904.76 499.12C910.093 494.293 917.12 491.717 925.84 491.39C931.49 491.298 937.123 492.033 942.56 493.57C947.303 494.984 951.826 497.05 956 499.71L950.19 511.47C941.897 507.157 934.533 505 928.1 505Z" fill="white"/>
<path d="M1016.93 515.63C1021.26 508.194 1027.43 501.996 1034.84 497.63C1042.28 493.218 1050.77 490.89 1059.43 490.89C1068.08 490.89 1076.57 493.218 1084.01 497.63C1091.44 502.048 1097.64 508.278 1102.01 515.74C1106.4 523.155 1108.73 531.612 1108.74 540.23C1108.75 548.849 1106.45 557.312 1102.08 564.74C1097.72 572.142 1091.52 578.289 1084.08 582.58C1076.6 586.899 1068.11 589.178 1059.47 589.19C1050.83 589.203 1042.34 586.947 1034.84 582.65C1027.41 578.399 1021.23 572.267 1016.93 564.87C1012.6 557.388 1010.32 548.895 1010.32 540.25C1010.32 531.605 1012.6 523.112 1016.93 515.63V515.63ZM1030.67 557.34C1033.6 562.469 1037.82 566.749 1042.9 569.76C1048.03 572.842 1053.91 574.445 1059.9 574.39C1065.77 574.449 1071.53 572.869 1076.55 569.83C1081.57 566.812 1085.71 562.525 1088.55 557.4C1091.47 552.105 1092.99 546.157 1092.98 540.112C1092.97 534.068 1091.42 528.125 1088.49 522.84C1085.6 517.668 1081.41 513.339 1076.33 510.28C1071.24 507.25 1065.43 505.65 1059.51 505.65C1053.59 505.65 1047.78 507.25 1042.69 510.28C1037.66 513.342 1033.52 517.674 1030.69 522.84C1027.73 528.126 1026.21 534.093 1026.26 540.15C1026.18 546.17 1027.7 552.104 1030.67 557.34V557.34Z" fill="white"/>
<path d="M1253.92 491.91V591.57H1253.53L1184.13 524.29L1184.53 588.13H1168.93V488.6H1169.73L1238.86 556.67L1238.59 491.91H1253.92Z" fill="white"/>
<path d="M521.46 324.49C521.334 324.549 521.203 324.599 521.07 324.64V324.64C518.009 325.75 515.097 327.235 512.4 329.06C509.532 330.944 506.774 332.991 504.14 335.19C501.45 337.37 498.82 339.67 496.25 342.05C493.68 344.43 491.1 346.82 488.58 349.29C483.49 354.17 478.53 359.23 473.26 364.15C470.61 366.59 467.97 369.08 465.06 371.46C463.578 372.726 462.018 373.898 460.39 374.97C458.514 376.317 456.42 377.332 454.2 377.97C453.87 378.05 453.56 378.15 453.2 378.23L452.01 378.36C451.6 378.36 451.21 378.43 450.79 378.44C450.37 378.45 449.86 378.35 449.39 378.27C448.524 378.151 447.68 377.912 446.88 377.56C446.078 377.262 445.321 376.855 444.63 376.35C443.891 375.871 443.218 375.296 442.63 374.64C442.054 374.034 441.551 373.362 441.13 372.64C440.727 371.993 440.391 371.306 440.13 370.59L439.72 369.59L439.44 368.59C438.807 366.287 438.491 363.908 438.5 361.52C438.479 359.443 438.609 357.368 438.89 355.31C439.673 349.764 440.972 344.304 442.77 339L435.15 347.85C428.49 355.53 421.89 363.3 414.78 370.76C411.23 374.48 407.55 378.14 403.59 381.65C399.502 385.473 394.934 388.747 390 391.39C388.462 392.168 386.842 392.771 385.17 393.19C382.911 393.755 380.549 393.755 378.29 393.19C375.57 392.432 373.205 390.74 371.61 388.41C370.394 386.595 369.554 384.555 369.14 382.41C368.56 379.224 368.436 375.971 368.77 372.75C369.021 369.945 369.452 367.159 370.06 364.41C371.195 359.185 372.661 354.038 374.45 349C376.17 344.06 378.05 339.21 380 334.43C383.9 324.86 388.24 315.55 392.82 306.43C395.11 301.84 397.45 297.27 399.94 292.76C400.21 292.26 400.5 291.76 400.77 291.28C397.2 293.04 393.61 294.7 390 296.33C381.52 300.13 372.95 303.63 364.37 307.05C348.8 313.23 333.15 319.05 317.54 325.05C300.119 363.834 280.611 401.646 259.1 438.32C240.43 470.479 219.916 501.531 197.66 531.32C186.41 546.18 174.66 560.69 161.87 574.5C149.08 588.31 135.45 601.5 119.52 612.64C111.52 618.14 102.92 623.25 92.87 626.53C87.635 628.301 82.1463 629.206 76.62 629.21C75.15 629.21 74.07 629.09 72.77 629.03C71.47 628.97 70.28 628.93 69.03 628.76C66.54 628.46 64.03 628.21 61.55 627.7C56.5083 626.85 51.5615 625.51 46.78 623.7C41.9064 621.885 37.2589 619.512 32.93 616.63C24.2455 610.85 16.9974 603.161 11.74 594.15C6.65828 585.367 3.19022 575.745 1.5 565.74C0.614617 560.833 0.113098 555.865 0 550.88C0 548.38 0 545.88 0.2 543.32C0.4 540.76 0.66 538.41 1 535.98C3.77 516.45 11.91 498.16 22.8 482.43C33.69 466.7 47.17 453.06 61.55 441C75.9447 429.058 91.2067 418.201 107.21 408.52C138.99 389.09 172.54 373.17 206.52 358.67C236.52 345.89 267.05 334.34 297.58 323.09C311.49 292.81 324.16 261.95 335.21 230.57C347.3 196.19 357.53 161.14 364.55 125.57C368.097 107.853 370.655 89.9517 372.21 71.95C373.01 63.01 373.39 53.95 373.54 45.12C373.54 37.02 372.09 29.04 368.39 23.85C366.538 21.2448 364.015 19.189 361.09 17.9C357.737 16.4644 354.146 15.6642 350.5 15.54C342.65 15.12 334.08 16.65 325.7 18.96C308.84 23.7 292.37 31.48 276.56 40.24C268.64 44.63 260.85 49.32 253.16 54.18C245.47 59.04 238 64.23 230.55 69.52C215.69 80.12 201.26 91.33 187.2 103.02C173.14 114.71 159.64 127.02 146.59 139.86C140.063 146.247 133.643 152.743 127.33 159.35C121.017 165.957 114.88 172.71 108.92 179.61C102.92 186.477 97.07 193.457 91.37 200.55C85.69 207.67 80.27 215 75 222.36C71.8 226.88 68.7 231.48 65.71 236.12C68.9 234.25 72.11 232.4 75.37 230.66C80.25 227.98 85.22 225.51 90.16 222.89H90.22C91.1503 222.34 92.1824 221.985 93.2538 221.845C94.3253 221.705 95.414 221.784 96.4543 222.076C97.4945 222.368 98.4648 222.869 99.3065 223.546C100.148 224.224 100.844 225.065 101.352 226.019C101.859 226.973 102.168 228.02 102.26 229.096C102.352 230.173 102.225 231.257 101.887 232.283C101.549 233.309 101.006 234.256 100.291 235.067C99.5768 235.878 98.7055 236.535 97.73 237C97.2042 237.276 96.6513 237.497 96.08 237.66C91.1594 239.044 86.3734 240.868 81.78 243.11C77.2016 245.352 72.7932 247.925 68.59 250.81C64.3676 253.682 60.3389 256.829 56.53 260.23C52.6965 263.647 49.1014 267.322 45.77 271.23V271.23L45.21 271.71C43.6346 273.05 41.6391 273.795 39.5709 273.816C37.5027 273.837 35.4927 273.132 33.8907 271.824C32.2887 270.515 31.1961 268.687 30.8032 266.656C30.4102 264.626 30.7417 262.521 31.74 260.71C50.49 227.36 74.45 198.71 99.48 171.23C124.768 144.066 151.692 118.472 180.1 94.59C208.35 70.59 238.18 48.4 270.28 29.24C278.34 24.5 286.607 20.0566 295.08 15.91C303.635 11.6807 312.477 8.0584 321.54 5.06997C330.76 2.16997 340.45 -0.140035 351.05 0.00996545C356.633 0.0344922 362.162 1.09232 367.36 3.12997C372.981 5.3983 377.898 9.11838 381.61 13.91C385.065 18.5094 387.533 23.7726 388.86 29.37C390.107 34.4891 390.778 39.7317 390.86 45C390.96 54.58 390.58 63.92 389.86 73.33C388.412 92.0187 385.874 110.607 382.26 129C375.17 165.7 364.86 201.56 352.69 236.66C343.563 262.82 333.477 288.577 322.43 313.93C335.43 309.14 348.43 304.31 361.33 299.31C369.87 295.98 378.33 292.57 386.71 288.9C394.698 285.506 402.445 281.574 409.9 277.13C411.63 275.709 413.832 274.992 416.067 275.123C418.302 275.253 420.406 276.221 421.959 277.833C423.512 279.446 424.4 281.584 424.447 283.822C424.493 286.061 423.695 288.234 422.21 289.91C422.26 289.91 422.42 289.64 422.36 289.73L422.26 289.88L421.88 290.45L421.01 291.86L419.18 294.93C417.95 297.03 416.74 299.17 415.54 301.33C413.16 305.66 410.78 310.03 408.47 314.42C403.87 323.22 399.47 332.12 395.34 341.08C391.256 349.838 387.758 358.858 384.87 368.08C384.21 370.3 383.64 372.5 383.2 374.59C382.807 376.372 382.633 378.196 382.68 380.02C382.68 380.35 382.73 380.61 382.75 380.79C383.483 380.662 384.2 380.457 384.89 380.18C388.52 378.69 392.52 375.87 396.26 372.92C400 369.97 403.71 366.67 407.32 363.28C414.52 356.49 421.49 349.28 428.07 341.74C434.65 334.2 441 326.39 447.07 318.35C450.063 314.31 452.9 310.137 455.58 305.83C456.82 303.83 458.03 301.75 459.2 299.65C460.11 297.8 461.01 295.93 461.93 294.1L462.12 294.22C462.46 293.56 462.81 292.89 463.12 292.22C464.043 290.427 465.581 289.027 467.452 288.276C469.324 287.526 471.403 287.475 473.309 288.134C475.215 288.793 476.819 290.117 477.828 291.863C478.836 293.609 479.182 295.66 478.8 297.64L478 301.8C472.15 314.73 465.79 327.16 460.26 339.68C457.517 345.694 455.159 351.877 453.2 358.19C452.77 359.65 452.4 361.14 452.14 362.47C451.883 363.612 451.752 364.779 451.75 365.95C451.75 366.87 451.81 367.11 451.68 367.22C451.55 367.33 451.61 367.35 451.68 367.38C451.75 367.41 451.78 367.56 451.68 367.52C451.64 367.537 451.605 367.565 451.58 367.6C451.58 367.6 451.65 367.6 451.69 367.6L451.82 367.68C451.9 367.68 452.01 367.68 452.11 367.68C453.355 367.573 454.57 367.234 455.69 366.68C457.133 366.002 458.533 365.234 459.88 364.38C462.74 362.518 465.482 360.481 468.09 358.28C473.43 353.84 478.67 349.11 483.88 344.28L491.75 337.09C494.417 334.703 497.103 332.333 499.81 329.98C502.56 327.66 505.35 325.35 508.35 323.18C511.409 320.882 514.689 318.892 518.14 317.24C519.07 316.94 520.078 316.991 520.974 317.383C521.869 317.776 522.589 318.482 522.999 319.37C523.409 320.257 523.48 321.264 523.198 322.2C522.916 323.136 522.302 323.936 521.47 324.45L521.46 324.49ZM292.21 334.63C264.72 345.19 237.37 356.02 210.49 367.83C177 382.59 144 398.72 113.15 418.07C97.7484 427.631 83.081 438.328 69.27 450.07C55.69 461.89 43.27 474.97 33.5 489.68C23.73 504.39 16.91 520.76 14.94 537.85C14.69 539.97 14.51 542.13 14.39 544.24C14.27 546.35 14.32 548.38 14.39 550.47C14.602 554.682 15.1403 558.871 16 563C17.6135 571.183 20.6604 579.017 25 586.14C29.2035 593.005 34.9187 598.819 41.71 603.14C45.0975 605.29 48.7257 607.035 52.52 608.34C56.3758 609.726 60.3581 610.731 64.41 611.34C66.41 611.72 68.53 611.86 70.61 612.08C71.61 612.2 72.7 612.19 73.75 612.26C74.8 612.33 75.97 612.4 76.75 612.37C80.4413 612.295 84.0958 611.62 87.57 610.37C95.04 607.86 102.47 603.45 109.57 598.46C116.705 593.284 123.49 587.642 129.88 581.57C136.37 575.47 142.66 569.06 148.74 562.42C160.91 549.12 172.31 534.99 183.21 520.42C204.884 491.099 224.847 460.552 243 428.93C260.8 398.27 277.11 366.72 292.21 334.63ZM382.33 380.88C382.216 380.819 382.089 380.785 381.96 380.78C381.73 380.79 381.91 380.89 382.33 380.88Z" fill="white"/>
<path d="M842.88 169.05C842.548 170.486 841.74 171.768 840.587 172.687C839.434 173.606 838.004 174.107 836.53 174.11V174.11C832.92 173.97 829.2 173.89 825.53 173.84C821.86 173.79 818.18 173.84 814.53 173.84C810.88 173.84 807.24 174.03 803.68 174.29C801.91 174.42 800.16 174.6 798.52 174.84C797.7 174.96 796.92 175.11 796.22 175.26C795.52 175.41 794.88 175.68 795.04 175.57C793.957 176.106 792.717 176.232 791.548 175.924C790.38 175.616 789.362 174.895 788.684 173.895C788.006 172.895 787.713 171.683 787.859 170.483C788.006 169.284 788.581 168.178 789.48 167.37C789.69 167.23 789.87 167.14 790.06 167.02C776.76 165.64 763.39 164.66 750 164.02C739.067 163.487 728.127 163.153 717.18 163.02C712.3 174.9 707.514 186.827 702.82 198.8C688.674 235.06 675.5 271.683 663.3 308.67C651.24 345.67 640.1 382.96 631.11 420.72C626.61 439.6 622.6 458.58 619.43 477.66C616.155 496.66 614.084 515.848 613.23 535.11V535.11C613.205 535.89 613.027 536.657 612.705 537.369C612.384 538.08 611.925 538.721 611.356 539.255C610.787 539.788 610.118 540.205 609.388 540.48C608.658 540.756 607.88 540.885 607.1 540.86C606.32 540.835 605.553 540.657 604.841 540.335C604.13 540.014 603.49 539.555 602.956 538.986C602.422 538.417 602.005 537.748 601.73 537.018C601.454 536.287 601.325 535.51 601.35 534.73C601.973 514.938 603.843 495.206 606.95 475.65C609.95 456.16 613.77 436.85 618.09 417.65C626.71 379.28 637.47 341.51 649.15 304.07C660.83 266.63 673.77 229.61 687.56 192.91C690.5 185.083 693.5 177.27 696.56 169.47C694.107 173.21 691.654 176.95 689.2 180.69C679.42 195.43 669.467 210.053 659.34 224.56C649.214 239.067 638.98 253.513 628.64 267.9C612.88 289.78 596.867 311.48 580.6 333C584.54 340.64 584.88 349.26 583.5 356.51C581.68 365.51 578.04 373.05 574 379.98C569.974 386.751 565.448 393.213 560.46 399.31C550.758 411.187 540.12 422.269 528.65 432.45C525.79 435 522.89 437.5 519.81 439.88C518.27 441.09 516.71 442.25 514.99 443.41C514.16 443.98 513.25 444.58 512.26 445.19C511.148 445.872 509.988 446.474 508.79 446.99C506.14 448.137 503.305 448.798 500.42 448.94C499.572 448.95 498.724 448.91 497.88 448.82C496.95 448.686 496.031 448.485 495.13 448.22C493.065 447.582 491.184 446.453 489.65 444.93C488.09 443.372 486.984 441.419 486.45 439.28C486.237 438.353 486.103 437.41 486.05 436.46C486.046 435.625 486.093 434.79 486.19 433.96C486.651 431.292 487.674 428.753 489.19 426.51V426.51L489.24 426.42C489.643 425.478 490.285 424.658 491.102 424.041C491.92 423.423 492.884 423.03 493.9 422.9L494.14 422.66C495.61 421.19 497.14 419.66 498.58 418.04C501.58 414.87 504.48 411.62 507.36 408.32C513.14 401.72 518.85 395.053 524.49 388.32C535.78 374.81 546.93 361.16 557.81 347.32C559.55 345.12 561.26 342.88 563 340.67C562.83 340.43 562.67 340.19 562.48 339.97C561.016 338.334 559.172 337.084 557.11 336.33C554.393 335.301 551.563 334.6 548.68 334.24C542.39 333.34 535.37 333.38 528.04 333.53C524.35 333.6 520.58 333.72 516.47 333.61C514.257 333.567 512.047 333.407 509.85 333.13C508.5 332.935 507.164 332.654 505.85 332.29C505.47 332.19 505.14 332.1 504.74 331.97L503.46 331.47C503.04 331.29 502.63 331.12 502.2 330.92C501.77 330.72 501.2 330.35 500.71 330.04L499.98 329.56L499.63 329.31C499.54 329.25 499.25 329.01 499.07 328.85C498.239 328.139 497.512 327.314 496.91 326.4C496.281 325.478 495.792 324.466 495.46 323.4C495.152 322.474 494.961 321.513 494.89 320.54C494.745 318.144 495.159 315.748 496.1 313.54C497.146 311.094 498.489 308.787 500.1 306.67C502.605 303.356 505.328 300.212 508.25 297.26C513.76 291.61 519.42 286.52 525.18 281.55C536.69 271.66 548.59 262.55 560.83 253.67C563.9 251.46 567 249.28 570.23 247.12C571.87 246.03 573.46 244.99 575.41 243.84C576.718 243.04 578.101 242.37 579.54 241.84C581.952 240.944 584.562 240.723 587.09 241.2C588.905 241.56 590.614 242.326 592.09 243.44C592.788 243.957 593.425 244.55 593.99 245.21C594.481 245.781 594.926 246.389 595.32 247.03C596.382 248.852 597.082 250.862 597.38 252.95C597.746 255.652 597.725 258.393 597.32 261.09C596.698 265.732 595.348 270.248 593.32 274.47C592.281 276.557 590.467 278.154 588.265 278.92C586.063 279.686 583.649 279.559 581.539 278.567C579.429 277.575 577.792 275.796 576.977 273.612C576.162 271.428 576.235 269.011 577.18 266.88L577.26 266.7C577.65 265.849 577.984 264.974 578.26 264.08C576.127 265.58 574 267.113 571.88 268.68C560.18 277.33 548.73 286.55 537.75 295.99C532.28 300.72 526.93 305.58 522.09 310.56C520.86 311.83 519.65 313.13 518.53 314.41C521.44 314.41 524.53 314.41 527.76 314.3C535.24 314.15 543.12 313.99 551.54 315.16C556.018 315.761 560.403 316.924 564.59 318.62C568.457 320.199 571.992 322.492 575.01 325.38C590.85 304.787 606.354 283.937 621.52 262.83C631.787 248.503 641.917 234.08 651.91 219.56C661.904 205.04 671.664 190.373 681.19 175.56C683.89 171.42 686.574 167.263 689.24 163.09C680.76 163.19 672.28 163.38 663.8 163.66C635.03 164.66 606.3 166.66 577.8 169.91C549.291 173.033 520.966 177.65 492.94 183.74V183.74C491.784 184.031 490.58 184.087 489.401 183.905C488.223 183.724 487.092 183.307 486.077 182.681C485.062 182.054 484.183 181.23 483.492 180.258C482.801 179.286 482.312 178.185 482.054 177.021C481.796 175.856 481.774 174.652 481.989 173.479C482.204 172.306 482.653 171.187 483.308 170.191C483.963 169.194 484.812 168.339 485.803 167.676C486.794 167.012 487.909 166.555 489.08 166.33H489.2C517.904 160.501 546.894 156.182 576.05 153.39C605.12 150.49 634.28 148.83 663.44 148.25C675.194 148.017 686.947 147.963 698.7 148.09C708.02 132.92 716.85 117.45 724.76 101.49C727.36 95.68 730.03 89.86 733 83.94C733.053 83.8429 733.1 83.7427 733.14 83.64V83.64C734.433 81.9686 736.277 80.8109 738.344 80.3735C740.411 79.9361 742.566 80.2474 744.425 81.2518C746.283 82.2562 747.725 83.8885 748.491 85.8572C749.258 87.8259 749.3 90.003 748.61 92C744.35 100.23 740.28 109.14 736.32 117.94C732.36 126.74 728.52 135.7 724.72 144.65C724.18 145.91 723.67 147.18 723.14 148.45C732.354 148.763 741.56 149.203 750.76 149.77C765.34 150.69 779.91 151.97 794.46 153.77C809.094 155.491 823.628 157.981 838 161.23C839.684 161.62 841.144 162.663 842.059 164.13C842.974 165.596 843.269 167.366 842.88 169.05V169.05ZM500 435C500.1 434.78 499.95 434.38 499.71 434L499.59 433.87C499.575 434.19 499.609 434.51 499.69 434.82C499.79 434.92 499.81 435.04 499.86 435.1C499.91 435.16 500 435.09 500 435ZM562.29 361.75C563.377 359.115 564.223 356.387 564.82 353.6C554.15 367.41 543.47 381.22 532.54 394.85C527 401.763 521.384 408.627 515.69 415.44C512.83 418.84 509.98 422.26 507.02 425.64C505.54 427.33 504.02 429.02 502.45 430.71C501.94 431.25 501.45 431.8 500.86 432.35L501.54 431.96C502.01 431.62 502.54 431.36 502.91 431.02C503.28 430.68 504.06 430.14 504.7 429.59L508.63 426.24C511.29 423.92 513.98 421.55 516.63 419.14C527.257 409.502 537.098 399.032 546.06 387.83C550.415 382.399 554.362 376.653 557.87 370.64C559.537 367.767 561.026 364.795 562.33 361.74L562.29 361.75ZM579.29 255.75C579.3 255.62 579.27 255.62 579.31 255.76L579.29 255.75Z" fill="white"/>
<path d="M780.45 323.27C777.83 326.56 775.17 329.42 772.45 332.33C769.73 335.24 766.99 338.04 764.21 340.83C758.65 346.423 752.984 351.893 747.21 357.24C741.43 362.6 735.56 367.87 729.47 372.97C726.47 375.52 723.31 378.03 720.09 380.47C716.786 383.012 713.33 385.35 709.74 387.47C708.74 388.02 707.74 388.56 706.65 389.07C705.391 389.68 704.07 390.152 702.71 390.48C702.33 390.59 701.81 390.66 701.36 390.74C700.796 390.806 700.228 390.84 699.66 390.84C698.88 390.823 698.104 390.712 697.35 390.51C696.728 390.348 696.124 390.12 695.55 389.83C693.692 388.96 692.073 387.652 690.83 386.02C688.931 383.383 687.815 380.263 687.61 377.02C687.409 374.596 687.446 372.157 687.72 369.74C688.8 360.8 691.36 353.1 694.02 345.43C696.51 338.48 699.28 331.74 702.18 325.09C701.523 324.579 700.981 323.936 700.588 323.203C700.196 322.469 699.963 321.66 699.903 320.83C699.844 320 699.96 319.167 700.244 318.385C700.527 317.603 700.972 316.889 701.55 316.29L702.02 315.79C702.934 314.805 703.754 313.737 704.47 312.6C705.36 311.29 706.39 309.71 707.47 308.12C709.769 304.896 712.26 301.814 714.93 298.89L715.27 298.61C716.832 297.311 718.794 296.589 720.825 296.566C722.857 296.543 724.834 297.221 726.425 298.485C728.015 299.749 729.121 301.523 729.558 303.507C729.994 305.491 729.734 307.565 728.82 309.38C726.88 313.27 725.09 316.5 723.27 319.99C721.45 323.48 719.69 326.83 717.95 330.25C714.49 337.11 711.2 344 708.28 350.95C705.36 357.9 702.77 365.01 701.64 371.56C701.388 373.013 701.271 374.486 701.29 375.96C701.293 376.363 701.333 376.765 701.41 377.16V377.16C702.08 376.9 702.82 376.55 703.57 376.16C706.792 374.464 709.908 372.574 712.9 370.5C716.02 368.39 719.12 366.15 722.18 363.85C728.31 359.23 734.34 354.38 740.28 349.43C746.22 344.48 752.07 339.37 757.81 334.18C760.68 331.58 763.51 328.96 766.3 326.29C769.09 323.62 771.85 320.91 774.24 318.21V318.15C774.957 317.505 775.882 317.14 776.846 317.123C777.81 317.107 778.748 317.438 779.487 318.058C780.225 318.677 780.716 319.543 780.867 320.495C781.018 321.447 780.821 322.422 780.31 323.24L780.45 323.27ZM699.91 377.66H700.03C699.961 377.645 699.889 377.645 699.82 377.66C699.82 377.66 699.82 377.68 699.91 377.66V377.66ZM723.28 279.92C725.633 274.771 728.371 269.807 731.47 265.07C732.787 263.102 734.832 261.738 737.154 261.277C739.477 260.817 741.887 261.298 743.855 262.615C745.823 263.932 747.187 265.976 747.648 268.299C748.108 270.622 747.627 273.032 746.31 275C743.809 278.834 741.59 282.844 739.67 287C738.675 289.07 736.919 290.676 734.769 291.484C732.619 292.292 730.24 292.239 728.128 291.337C726.016 290.435 724.333 288.753 723.43 286.641C722.527 284.529 722.473 282.15 723.28 280V279.92Z" fill="white"/>
<path d="M883 323L882.91 323.16C879.1 329.69 874.91 336.62 870.69 343.31C866.356 350.188 861.523 356.739 856.23 362.91C854.82 364.49 853.35 366.05 851.69 367.59C849.904 369.305 847.924 370.805 845.79 372.06C844.361 372.887 842.823 373.506 841.22 373.9C840.125 374.151 839.002 374.255 837.88 374.21C836.668 374.164 835.471 373.931 834.33 373.52C832.234 372.752 830.373 371.453 828.93 369.75C827.884 368.536 827 367.191 826.3 365.75C823.94 360.75 823.25 356.75 822.3 352.88C821.592 349.382 820.654 345.934 819.49 342.56C819.076 341.424 818.525 340.343 817.85 339.34C817.34 338.66 817.28 338.77 817.34 338.77C817.18 338.77 817.44 338.56 816.53 338.77C815.343 339.195 814.209 339.755 813.15 340.44C810.262 342.366 807.545 344.537 805.03 346.93C802.31 349.43 799.66 352.16 797.09 354.99C791.92 360.808 787.066 366.9 782.55 373.24C780.27 376.46 778.05 379.76 775.8 383.16C773.55 386.56 771.46 390 768.43 394L768.28 394.13C767.421 394.908 766.418 395.508 765.327 395.898C764.236 396.288 763.078 396.459 761.921 396.401C760.764 396.344 759.63 396.059 758.583 395.563C757.536 395.066 756.597 394.369 755.82 393.51C754.839 392.417 754.143 391.098 753.794 389.671C753.445 388.244 753.454 386.753 753.82 385.33L754.29 383.55L754.69 382.14L755.49 379.34L757.1 373.8L760.36 362.8L766.96 340.8L772.59 322.44C771.892 322.445 771.201 322.301 770.563 322.018C769.925 321.735 769.355 321.32 768.89 320.8C768.192 320.018 767.758 319.036 767.648 317.993C767.539 316.951 767.76 315.9 768.28 314.99C769.48 312.91 770.65 311.08 771.85 309.24C773.05 307.4 774.26 305.61 775.5 303.83L779.25 298.53C780.53 296.76 781.81 295.02 783.25 293.2C784.412 291.706 786.042 290.645 787.879 290.187C789.716 289.729 791.653 289.9 793.381 290.673C795.109 291.446 796.528 292.776 797.41 294.451C798.293 296.125 798.589 298.048 798.25 299.91L797.74 302.82C795.34 309.51 793.02 316.94 790.74 324.14L784 346L781.24 355.22C783.3 352.5 785.35 349.75 787.45 347C789.87 343.79 792.35 340.58 795.04 337.39C797.826 333.993 800.952 330.89 804.37 328.13C806.449 326.463 808.764 325.115 811.24 324.13C812.843 323.508 814.527 323.118 816.24 322.97C817.198 322.889 818.162 322.889 819.12 322.97C820.073 323.073 821.014 323.267 821.93 323.55C823.798 324.118 825.547 325.023 827.09 326.22C828.439 327.287 829.634 328.535 830.64 329.93C832.208 332.152 833.428 334.6 834.26 337.19C835.545 341.276 836.547 345.446 837.26 349.67C837.63 351.58 837.98 353.42 838.37 355.11C838.67 356.574 839.084 358.011 839.61 359.41V359.41C840.713 358.788 841.76 358.072 842.74 357.27C844.108 356.174 845.42 355.009 846.67 353.78C852.005 348.392 857.042 342.717 861.76 336.78C864.22 333.787 866.657 330.753 869.07 327.68C871.49 324.58 873.85 321.56 876.54 318.38C877.2 317.659 878.101 317.205 879.074 317.103C880.046 317.001 881.022 317.259 881.817 317.827C882.612 318.396 883.172 319.236 883.39 320.189C883.608 321.142 883.469 322.142 883 323V323ZM838.24 360C838.326 360.002 838.411 359.985 838.49 359.95C838.417 359.953 838.346 359.97 838.28 360H838.24Z" fill="white"/>
</g>
<defs>
<clipPath id="clip0_231_39">
<rect width="1253.92" height="629.18" fill="white"/>
</clipPath>
</defs>
</svg>
